<?xml version="1.0"?>
<svg xmlns="http://www.w3.org/2000/svg" xmlns:xlink="http://www.w3.org/1999/xlink" xmlns:svgjs="http://svgjs.com/svgjs" version="1.1" width="512" height="512" x="0" y="0" viewBox="0 0 512 512" style="enable-background:new 0 0 512 512" xml:space="preserve"><g><path xmlns="http://www.w3.org/2000/svg" d="m501.335938 337.636719c-6.851563-6.859375-16.300782-10.792969-25.925782-10.792969-12.460937 0-62.835937-.03125-75.300781-.03125-9.660156 0-18.75 3.773438-25.59375 10.628906-6.835937 6.84375-10.59375 15.921875-10.582031 25.566406l.050781 34.585938c.007813 5.613281 3.148437 10.75 8.140625 13.316406 20.199219 10.390625 42.953125 15.878906 65.800781 15.878906 22.847657 0 45.601563-5.488281 65.804688-15.878906 4.988281-2.566406 8.128906-7.703125 8.136719-13.316406l.050781-34.558594c.011719-9.535156-3.746094-18.554687-10.582031-25.398437zm0 0" fill="#ffffff" data-original="#000000" style=""/><path xmlns="http://www.w3.org/2000/svg" d="m384.09375 259.90625c0 29.671875 24.140625 53.816406 53.816406 53.816406 29.675782 0 53.816406-24.144531 53.816406-53.816406 0-29.675781-24.140624-53.816406-53.816406-53.816406-29.675781 0-53.816406 24.140625-53.816406 53.816406zm0 0" fill="#ffffff" data-original="#000000" style=""/><path xmlns="http://www.w3.org/2000/svg" d="m111.476562 326.84375c-12.460937 0-62.835937-.03125-75.304687-.03125-9.660156 0-18.75 3.773438-25.59375 10.628906-6.835937 6.84375-10.59375 15.921875-10.578125 25.566406l.046875 34.585938c.0078125 5.613281 3.148437 10.753906 8.140625 13.320312 20.203125 10.386719 42.957031 15.878907 65.804688 15.878907 22.847656 0 45.601562-5.492188 65.800781-15.882813 4.992187-2.5625 8.132812-7.703125 8.140625-13.316406l.046875-34.558594c.015625-9.535156-3.742188-18.554687-10.578125-25.398437-6.851563-6.859375-16.300782-10.792969-25.925782-10.792969zm0 0" fill="#ffffff" data-original="#000000" style=""/><path xmlns="http://www.w3.org/2000/svg" d="m73.976562 313.722656c29.671876 0 53.816407-24.144531 53.816407-53.816406 0-29.675781-24.144531-53.816406-53.816407-53.816406-29.675781 0-53.820312 24.140625-53.820312 53.816406 0 29.671875 24.144531 53.816406 53.820312 53.816406zm0 0" fill="#ffffff" data-original="#000000" style=""/><path xmlns="http://www.w3.org/2000/svg" d="m293.273438 412.050781c-12.460938 0-62.835938-.03125-75.300782-.03125-9.660156 0-18.75 3.773438-25.59375 10.628907-6.835937 6.84375-10.59375 15.925781-10.578125 25.566406l.046875 34.585937c.007813 5.613281 3.148438 10.753907 8.140625 13.320313 20.199219 10.386718 42.953125 15.878906 65.800781 15.878906 22.847657 0 45.601563-5.492188 65.804688-15.878906 4.992188-2.566406 8.132812-7.707032 8.140625-13.320313l.046875-34.554687c.011719-9.535156-3.746094-18.558594-10.578125-25.402344-6.851563-6.859375-16.300781-10.792969-25.929687-10.792969zm0 0" fill="#ffffff" data-original="#000000" style=""/><path xmlns="http://www.w3.org/2000/svg" d="m309.59375 345.113281c0-29.675781-24.144531-53.816406-53.820312-53.816406-29.671876 0-53.816407 24.144531-53.816407 53.816406 0 29.675781 24.144531 53.816407 53.816407 53.816407 29.675781 0 53.820312-24.140626 53.820312-53.816407zm0 0" fill="#ffffff" data-original="#000000" style=""/><path xmlns="http://www.w3.org/2000/svg" d="m399.957031 202c2.808594 0 5.601563-.785156 8.046875-2.339844 4.332032-2.753906 6.953125-7.527344 6.953125-12.660156v-11h28.964844c8.285156 0 15-6.714844 15-15v-146c0-8.285156-6.714844-15-15-15h-375.929687c-8.28125 0-15 6.714844-15 15v146c0 8.285156 6.71875 15 15 15h28.964843v11c0 5.132812 2.625 9.90625 6.957031 12.660156 4.332032 2.75 9.769532 3.097656 14.417969.917969l49.34375-23.15625c2.179688-1.023437 3.964844-1.421875 6.371094-1.421875h163.820313c2.40625 0 4.195312.398438 6.375 1.421875l49.34375 23.15625c2.023437.949219 4.199218 1.421875 6.371093 1.421875zm-204.742187-99h-.507813c-8.28125 0-15-6.714844-15-15s6.71875-15 15-15h.507813c8.285156 0 15 6.714844 15 15s-6.714844 15-15 15zm60.992187 0h-.507812c-8.28125 0-15-6.714844-15-15s6.71875-15 15-15h.507812c8.285157 0 15 6.714844 15 15s-6.714843 15-15 15zm61 0h-.507812c-8.28125 0-15-6.714844-15-15s6.71875-15 15-15h.507812c8.285157 0 15 6.714844 15 15s-6.714843 15-15 15zm0 0" fill="#ffffff" data-original="#000000" style=""/></g></svg>
